<svg version="1.1"
width="1000" height="1000"
xmlns="http://www.w3.org/2000/svg">
<path d="M928.6159909441899,886.0919021504438 964.307995472095,865.4851137283406 1000,886.0919021504438 1000,927.3054789946503 964.307995472095,947.9122674167535 928.6159909441899,927.3054789946503 928.6159909441899,886.0919021504438Z" id="2A" nom_dep="Corse-du-Sud" insee_reg="94" fill="white" stroke="black"/>
<path d="M393.2359230256134,824.2715368841341 428.92792755351843,803.664748462031 464.6199320814235,824.2715368841341 464.6199320814235,865.4851137283406 428.92792755351843,886.0919021504438 393.2359230256134,865.4851137283406 393.2359230256134,824.2715368841341Z" id="09" nom_dep="Ariège" insee_reg="76" fill="white" stroke="black"/>
<path d="M464.6199320814235,824.2715368841341 500.3119366093286,803.664748462031 536.0039411372336,824.2715368841341 536.0039411372336,865.4851137283406 500.3119366093286,886.0919021504438 464.6199320814235,865.4851137283406 464.6199320814235,824.2715368841341Z" id="66" nom_dep="Pyrénées-Orientales" insee_reg="76" fill="white" stroke="black"/>
<path d="M892.9239864162847,824.2715368841341 928.6159909441899,803.664748462031 964.307995472095,824.2715368841341 964.307995472095,865.4851137283406 928.6159909441899,886.0919021504438 892.9239864162847,865.4851137283406 892.9239864162847,824.2715368841341Z" id="2B" nom_dep="Haute-Corse" insee_reg="94" fill="white" stroke="black"/>
<path d="M214.77590038608776,762.4511716178237 250.4679049139928,741.8443831957204 286.15990944189787,762.4511716178237 286.15990944189787,803.66474846203 250.4679049139928,824.2715368841333 214.77590038608776,803.66474846203 214.77590038608776,762.4511716178237Z" id="64" nom_dep="Pyrénées-Atlantiques" insee_reg="75" fill="white" stroke="black"/>
<path d="M286.159909441898,762.4511716178237 321.85191396980304,741.8443831957204 357.5439184977081,762.4511716178237 357.5439184977081,803.66474846203 321.85191396980304,824.2715368841333 286.159909441898,803.66474846203 286.159909441898,762.4511716178237Z" id="65" nom_dep="Hautes-Pyrénées" insee_reg="76" fill="white" stroke="black"/>
<path d="M357.5439184977081,762.4511716178237 393.2359230256132,741.8443831957204 428.92792755351826,762.4511716178237 428.92792755351826,803.66474846203 393.2359230256132,824.2715368841333 357.5439184977081,803.66474846203 357.5439184977081,762.4511716178237Z" id="31" nom_dep="Haute-Garonne" insee_reg="76" fill="white" stroke="black"/>
<path d="M428.92792755351843,762.4511716178237 464.6199320814235,741.8443831957204 500.3119366093286,762.4511716178237 500.3119366093286,803.66474846203 464.6199320814235,824.2715368841333 428.92792755351843,803.66474846203 428.92792755351843,762.4511716178237Z" id="11" nom_dep="Aude" insee_reg="76" fill="white" stroke="black"/>
<path d="M500.3119366093286,762.4511716178237 536.0039411372336,741.8443831957204 571.6959456651387,762.4511716178237 571.6959456651387,803.66474846203 536.0039411372336,824.2715368841333 500.3119366093286,803.66474846203 500.3119366093286,762.4511716178237Z" id="34" nom_dep="Hérault" insee_reg="76" fill="white" stroke="black"/>
<path d="M643.079954720949,762.4511716178237 678.771959248854,741.8443831957204 714.4639637767592,762.4511716178237 714.4639637767592,803.66474846203 678.771959248854,824.2715368841333 643.079954720949,803.66474846203 643.079954720949,762.4511716178237Z" id="13" nom_dep="Bouches-du-Rhône" insee_reg="93" fill="white" stroke="black"/>
<path d="M714.4639637767593,762.4511716178237 750.1559683046644,741.8443831957204 785.8479728325694,762.4511716178237 785.8479728325694,803.66474846203 750.1559683046644,824.2715368841333 714.4639637767593,803.66474846203 714.4639637767593,762.4511716178237Z" id="83" nom_dep="Var" insee_reg="93" fill="white" stroke="black"/>
<path d="M179.0838958581827,700.6308063515139 214.77590038608776,680.0240179294107 250.4679049139928,700.6308063515139 250.4679049139928,741.8443831957204 214.77590038608776,762.4511716178237 179.0838958581827,741.8443831957204 179.0838958581827,700.6308063515139Z" id="40" nom_dep="Landes" insee_reg="75" fill="white" stroke="black"/>
<path d="M250.46790491399287,700.6308063515139 286.1599094418979,680.0240179294107 321.851913969803,700.6308063515139 321.851913969803,741.8443831957204 286.1599094418979,762.4511716178237 250.46790491399287,741.8443831957204 250.46790491399287,700.6308063515139Z" id="32" nom_dep="Gers" insee_reg="76" fill="white" stroke="black"/>
<path d="M321.85191396980304,700.6308063515139 357.5439184977081,680.0240179294107 393.2359230256132,700.6308063515139 393.2359230256132,741.8443831957204 357.5439184977081,762.4511716178237 321.85191396980304,741.8443831957204 321.85191396980304,700.6308063515139Z" id="82" nom_dep="Tarn-et-Garonne" insee_reg="76" fill="white" stroke="black"/>
<path d="M393.2359230256134,700.6308063515139 428.92792755351843,680.0240179294107 464.6199320814235,700.6308063515139 464.6199320814235,741.8443831957204 428.92792755351843,762.4511716178237 393.2359230256134,741.8443831957204 393.2359230256134,700.6308063515139Z" id="81" nom_dep="Tarn" insee_reg="76" fill="white" stroke="black"/>
<path d="M464.6199320814235,700.6308063515139 500.3119366093286,680.0240179294107 536.0039411372336,700.6308063515139 536.0039411372336,741.8443831957204 500.3119366093286,762.4511716178237 464.6199320814235,741.8443831957204 464.6199320814235,700.6308063515139Z" id="12" nom_dep="Aveyron" insee_reg="76" fill="white" stroke="black"/>
<path d="M536.0039411372336,700.6308063515139 571.6959456651387,680.0240179294107 607.3879501930438,700.6308063515139 607.3879501930438,741.8443831957204 571.6959456651387,762.4511716178237 536.0039411372336,741.8443831957204 536.0039411372336,700.6308063515139Z" id="30" nom_dep="Gard" insee_reg="76" fill="white" stroke="black"/>
<path d="M607.3879501930439,700.6308063515139 643.079954720949,680.0240179294107 678.771959248854,700.6308063515139 678.771959248854,741.8443831957204 643.079954720949,762.4511716178237 607.3879501930439,741.8443831957204 607.3879501930439,700.6308063515139Z" id="84" nom_dep="Vaucluse" insee_reg="93" fill="white" stroke="black"/>
<path d="M678.771959248854,700.6308063515139 714.4639637767592,680.0240179294107 750.1559683046643,700.6308063515139 750.1559683046643,741.8443831957204 714.4639637767592,762.4511716178237 678.771959248854,741.8443831957204 678.771959248854,700.6308063515139Z" id="04" nom_dep="Alpes-de-Haute-Provence" insee_reg="93" fill="white" stroke="black"/>
<path d="M750.1559683046644,700.6308063515139 785.8479728325694,680.0240179294107 821.5399773604746,700.6308063515139 821.5399773604746,741.8443831957204 785.8479728325694,762.4511716178237 750.1559683046644,741.8443831957204 750.1559683046644,700.6308063515139Z" id="06" nom_dep="Alpes-Maritimes" insee_reg="93" fill="white" stroke="black"/>
<path d="M214.77590038608776,638.8104410852035 250.4679049139928,618.2036526631002 286.15990944189787,638.8104410852035 286.15990944189787,680.0240179294099 250.4679049139928,700.6308063515131 214.77590038608776,680.0240179294099 214.77590038608776,638.8104410852035Z" id="33" nom_dep="Gironde" insee_reg="75" fill="white" stroke="black"/>
<path d="M286.159909441898,638.8104410852035 321.85191396980304,618.2036526631002 357.5439184977081,638.8104410852035 357.5439184977081,680.0240179294099 321.85191396980304,700.6308063515131 286.159909441898,680.0240179294099 286.159909441898,638.8104410852035Z" id="47" nom_dep="Lot-et-Garonne" insee_reg="75" fill="white" stroke="black"/>
<path d="M357.5439184977081,638.8104410852035 393.2359230256132,618.2036526631002 428.92792755351826,638.8104410852035 428.92792755351826,680.0240179294099 393.2359230256132,700.6308063515131 357.5439184977081,680.0240179294099 357.5439184977081,638.8104410852035Z" id="46" nom_dep="Lot" insee_reg="76" fill="white" stroke="black"/>
<path d="M428.92792755351843,638.8104410852035 464.6199320814235,618.2036526631002 500.3119366093286,638.8104410852035 500.3119366093286,680.0240179294099 464.6199320814235,700.6308063515131 428.92792755351843,680.0240179294099 428.92792755351843,638.8104410852035Z" id="15" nom_dep="Cantal" insee_reg="84" fill="white" stroke="black"/>
<path d="M500.3119366093286,638.8104410852035 536.0039411372336,618.2036526631002 571.6959456651387,638.8104410852035 571.6959456651387,680.0240179294099 536.0039411372336,700.6308063515131 500.3119366093286,680.0240179294099 500.3119366093286,638.8104410852035Z" id="48" nom_dep="Lozère" insee_reg="76" fill="white" stroke="black"/>
<path d="M571.6959456651389,638.8104410852035 607.3879501930439,618.2036526631002 643.079954720949,638.8104410852035 643.079954720949,680.0240179294099 607.3879501930439,700.6308063515131 571.6959456651389,680.0240179294099 571.6959456651389,638.8104410852035Z" id="07" nom_dep="Ardèche" insee_reg="84" fill="white" stroke="black"/>
<path d="M643.079954720949,638.8104410852035 678.771959248854,618.2036526631002 714.4639637767592,638.8104410852035 714.4639637767592,680.0240179294099 678.771959248854,700.6308063515131 643.079954720949,680.0240179294099 643.079954720949,638.8104410852035Z" id="26" nom_dep="Drôme" insee_reg="84" fill="white" stroke="black"/>
<path d="M714.4639637767593,638.8104410852035 750.1559683046644,618.2036526631002 785.8479728325694,638.8104410852035 785.8479728325694,680.0240179294099 750.1559683046644,700.6308063515131 714.4639637767593,680.0240179294099 714.4639637767593,638.8104410852035Z" id="05" nom_dep="Hautes-Alpes" insee_reg="93" fill="white" stroke="black"/>
<path d="M250.46790491399287,576.9900758188937 286.1599094418979,556.3832873967905 321.851913969803,576.9900758188937 321.851913969803,618.2036526631002 286.1599094418979,638.8104410852035 250.46790491399287,618.2036526631002 250.46790491399287,576.9900758188937Z" id="16" nom_dep="Charente" insee_reg="75" fill="white" stroke="black"/>
<path d="M321.85191396980304,576.9900758188937 357.5439184977081,556.3832873967905 393.2359230256132,576.9900758188937 393.2359230256132,618.2036526631002 357.5439184977081,638.8104410852035 321.85191396980304,618.2036526631002 321.85191396980304,576.9900758188937Z" id="24" nom_dep="Dordogne" insee_reg="75" fill="white" stroke="black"/>
<path d="M393.2359230256134,576.9900758188937 428.92792755351843,556.3832873967905 464.6199320814235,576.9900758188937 464.6199320814235,618.2036526631002 428.92792755351843,638.8104410852035 393.2359230256134,618.2036526631002 393.2359230256134,576.9900758188937Z" id="19" nom_dep="Corrèze" insee_reg="75" fill="white" stroke="black"/>
<path d="M464.6199320814235,576.9900758188937 500.3119366093286,556.3832873967905 536.0039411372336,576.9900758188937 536.0039411372336,618.2036526631002 500.3119366093286,638.8104410852035 464.6199320814235,618.2036526631002 464.6199320814235,576.9900758188937Z" id="63" nom_dep="Puy-de-Dôme" insee_reg="84" fill="white" stroke="black"/>
<path d="M536.0039411372336,576.9900758188937 571.6959456651387,556.3832873967905 607.3879501930438,576.9900758188937 607.3879501930438,618.2036526631002 571.6959456651387,638.8104410852035 536.0039411372336,618.2036526631002 536.0039411372336,576.9900758188937Z" id="43" nom_dep="Haute-Loire" insee_reg="84" fill="white" stroke="black"/>
<path d="M607.3879501930439,576.9900758188937 643.079954720949,556.3832873967905 678.771959248854,576.9900758188937 678.771959248854,618.2036526631002 643.079954720949,638.8104410852035 607.3879501930439,618.2036526631002 607.3879501930439,576.9900758188937Z" id="38" nom_dep="Isère" insee_reg="84" fill="white" stroke="black"/>
<path d="M678.771959248854,576.9900758188937 714.4639637767592,556.3832873967905 750.1559683046643,576.9900758188937 750.1559683046643,618.2036526631002 714.4639637767592,638.8104410852035 678.771959248854,618.2036526631002 678.771959248854,576.9900758188937Z" id="73" nom_dep="Savoie" insee_reg="84" fill="white" stroke="black"/>
<path d="M214.77590038608776,515.1697105525832 250.4679049139928,494.56292213048 286.15990944189787,515.1697105525832 286.15990944189787,556.3832873967897 250.4679049139928,576.9900758188929 214.77590038608776,556.3832873967897 214.77590038608776,515.1697105525832Z" id="17" nom_dep="Charente-Maritime" insee_reg="75" fill="white" stroke="black"/>
<path d="M286.159909441898,515.1697105525832 321.85191396980304,494.56292213048 357.5439184977081,515.1697105525832 357.5439184977081,556.3832873967897 321.85191396980304,576.9900758188929 286.159909441898,556.3832873967897 286.159909441898,515.1697105525832Z" id="86" nom_dep="Vienne" insee_reg="75" fill="white" stroke="black"/>
<path d="M357.5439184977081,515.1697105525832 393.2359230256132,494.56292213048 428.92792755351826,515.1697105525832 428.92792755351826,556.3832873967897 393.2359230256132,576.9900758188929 357.5439184977081,556.3832873967897 357.5439184977081,515.1697105525832Z" id="87" nom_dep="Haute-Vienne" insee_reg="75" fill="white" stroke="black"/>
<path d="M428.92792755351843,515.1697105525832 464.6199320814235,494.56292213048 500.3119366093286,515.1697105525832 500.3119366093286,556.3832873967897 464.6199320814235,576.9900758188929 428.92792755351843,556.3832873967897 428.92792755351843,515.1697105525832Z" id="23" nom_dep="Creuse" insee_reg="75" fill="white" stroke="black"/>
<path d="M500.3119366093286,515.1697105525832 536.0039411372336,494.56292213048 571.6959456651387,515.1697105525832 571.6959456651387,556.3832873967897 536.0039411372336,576.9900758188929 500.3119366093286,556.3832873967897 500.3119366093286,515.1697105525832Z" id="42" nom_dep="Loire" insee_reg="84" fill="white" stroke="black"/>
<path d="M571.6959456651389,515.1697105525832 607.3879501930439,494.56292213048 643.079954720949,515.1697105525832 643.079954720949,556.3832873967897 607.3879501930439,576.9900758188929 571.6959456651389,556.3832873967897 571.6959456651389,515.1697105525832Z" id="69" nom_dep="Rhône" insee_reg="84" fill="white" stroke="black"/>
<path d="M643.079954720949,515.1697105525832 678.771959248854,494.56292213048 714.4639637767592,515.1697105525832 714.4639637767592,556.3832873967897 678.771959248854,576.9900758188929 643.079954720949,556.3832873967897 643.079954720949,515.1697105525832Z" id="01" nom_dep="Ain" insee_reg="84" fill="white" stroke="black"/>
<path d="M714.4639637767593,515.1697105525832 750.1559683046644,494.56292213048 785.8479728325694,515.1697105525832 785.8479728325694,556.3832873967897 750.1559683046644,576.9900758188929 714.4639637767593,556.3832873967897 714.4639637767593,515.1697105525832Z" id="74" nom_dep="Haute-Savoie" insee_reg="84" fill="white" stroke="black"/>
<path d="M179.0838958581827,453.34934528627355 214.77590038608776,432.7425568641703 250.4679049139928,453.34934528627355 250.4679049139928,494.56292213048 214.77590038608776,515.1697105525832 179.0838958581827,494.56292213048 179.0838958581827,453.34934528627355Z" id="85" nom_dep="Vendée" insee_reg="52" fill="white" stroke="black"/>
<path d="M250.46790491399287,453.34934528627355 286.1599094418979,432.7425568641703 321.851913969803,453.34934528627355 321.851913969803,494.56292213048 286.1599094418979,515.1697105525832 250.46790491399287,494.56292213048 250.46790491399287,453.34934528627355Z" id="79" nom_dep="Deux-Sèvres" insee_reg="75" fill="white" stroke="black"/>
<path d="M321.85191396980304,453.34934528627355 357.5439184977081,432.7425568641703 393.2359230256132,453.34934528627355 393.2359230256132,494.56292213048 357.5439184977081,515.1697105525832 321.85191396980304,494.56292213048 321.85191396980304,453.34934528627355Z" id="41" nom_dep="Loir-et-Cher" insee_reg="24" fill="white" stroke="black"/>
<path d="M393.2359230256134,453.34934528627355 428.92792755351843,432.7425568641703 464.6199320814235,453.34934528627355 464.6199320814235,494.56292213048 428.92792755351843,515.1697105525832 393.2359230256134,494.56292213048 393.2359230256134,453.34934528627355Z" id="36" nom_dep="Indre" insee_reg="24" fill="white" stroke="black"/>
<path d="M464.6199320814235,453.34934528627355 500.3119366093286,432.7425568641703 536.0039411372336,453.34934528627355 536.0039411372336,494.56292213048 500.3119366093286,515.1697105525832 464.6199320814235,494.56292213048 464.6199320814235,453.34934528627355Z" id="18" nom_dep="Cher" insee_reg="24" fill="white" stroke="black"/>
<path d="M536.0039411372336,453.34934528627355 571.6959456651387,432.7425568641703 607.3879501930438,453.34934528627355 607.3879501930438,494.56292213048 571.6959456651387,515.1697105525832 536.0039411372336,494.56292213048 536.0039411372336,453.34934528627355Z" id="03" nom_dep="Allier" insee_reg="84" fill="white" stroke="black"/>
<path d="M607.3879501930439,453.34934528627355 643.079954720949,432.7425568641703 678.771959248854,453.34934528627355 678.771959248854,494.56292213048 643.079954720949,515.1697105525832 607.3879501930439,494.56292213048 607.3879501930439,453.34934528627355Z" id="71" nom_dep="Saône-et-Loire" insee_reg="27" fill="white" stroke="black"/>
<path d="M678.771959248854,453.34934528627355 714.4639637767592,432.7425568641703 750.1559683046643,453.34934528627355 750.1559683046643,494.56292213048 714.4639637767592,515.1697105525832 678.771959248854,494.56292213048 678.771959248854,453.34934528627355Z" id="39" nom_dep="Jura" insee_reg="27" fill="white" stroke="black"/>
<path d="M143.3918913302776,391.528980019963 179.08389585818264,370.9221915978598 214.7759003860877,391.528980019963 214.7759003860877,432.7425568641695 179.08389585818264,453.3493452862727 143.3918913302776,432.7425568641695 143.3918913302776,391.528980019963Z" id="44" nom_dep="Loire-Atlantique" insee_reg="52" fill="white" stroke="black"/>
<path d="M214.77590038608776,391.528980019963 250.4679049139928,370.9221915978598 286.15990944189787,391.528980019963 286.15990944189787,432.7425568641695 250.4679049139928,453.3493452862727 214.77590038608776,432.7425568641695 214.77590038608776,391.528980019963Z" id="49" nom_dep="Maine-et-Loire" insee_reg="52" fill="white" stroke="black"/>
<path d="M286.159909441898,391.528980019963 321.85191396980304,370.9221915978598 357.5439184977081,391.528980019963 357.5439184977081,432.7425568641695 321.85191396980304,453.3493452862727 286.159909441898,432.7425568641695 286.159909441898,391.528980019963Z" id="37" nom_dep="Indre-et-Loire " insee_reg="24" fill="white" stroke="black"/>
<path d="M357.5439184977081,391.528980019963 393.2359230256132,370.9221915978598 428.92792755351826,391.528980019963 428.92792755351826,432.7425568641695 393.2359230256132,453.3493452862727 357.5439184977081,432.7425568641695 357.5439184977081,391.528980019963Z" id="92" nom_dep="Hauts-de-Seine" insee_reg="11" fill="white" stroke="black"/>
<path d="M428.92792755351843,391.528980019963 464.6199320814235,370.9221915978598 500.3119366093286,391.528980019963 500.3119366093286,432.7425568641695 464.6199320814235,453.3493452862727 428.92792755351843,432.7425568641695 428.92792755351843,391.528980019963Z" id="45" nom_dep="Loiret" insee_reg="24" fill="white" stroke="black"/>
<path d="M500.3119366093286,391.528980019963 536.0039411372336,370.9221915978598 571.6959456651387,391.528980019963 571.6959456651387,432.7425568641695 536.0039411372336,453.3493452862727 500.3119366093286,432.7425568641695 500.3119366093286,391.528980019963Z" id="58" nom_dep="Nièvre" insee_reg="27" fill="white" stroke="black"/>
<path d="M571.6959456651389,391.528980019963 607.3879501930439,370.9221915978598 643.079954720949,391.528980019963 643.079954720949,432.7425568641695 607.3879501930439,453.3493452862727 571.6959456651389,432.7425568641695 571.6959456651389,391.528980019963Z" id="21" nom_dep="Côte-d'Or" insee_reg="27" fill="white" stroke="black"/>
<path d="M643.079954720949,391.528980019963 678.771959248854,370.9221915978598 714.4639637767592,391.528980019963 714.4639637767592,432.7425568641695 678.771959248854,453.3493452862727 643.079954720949,432.7425568641695 643.079954720949,391.528980019963Z" id="25" nom_dep="Doubs" insee_reg="27" fill="white" stroke="black"/>
<path d="M714.4639637767593,391.528980019963 750.1559683046644,370.9221915978598 785.8479728325694,391.528980019963 785.8479728325694,432.7425568641695 750.1559683046644,453.3493452862727 714.4639637767593,432.7425568641695 714.4639637767593,391.528980019963Z" id="90" nom_dep="Territoire de Belfort" insee_reg="27" fill="white" stroke="black"/>
<path d="M107.69988680237246,329.7086147536533 143.39189133027753,309.1018263315501 179.0838958581826,329.7086147536533 179.0838958581826,370.9221915978598 143.39189133027753,391.528980019963 107.69988680237246,370.9221915978598 107.69988680237246,329.7086147536533Z" id="56" nom_dep="Morbihan" insee_reg="53" fill="white" stroke="black"/>
<path d="M179.0838958581827,329.7086147536533 214.77590038608776,309.1018263315501 250.4679049139928,329.7086147536533 250.4679049139928,370.9221915978598 214.77590038608776,391.528980019963 179.0838958581827,370.9221915978598 179.0838958581827,329.7086147536533Z" id="35" nom_dep="Ille-et-Vilaine" insee_reg="53" fill="white" stroke="black"/>
<path d="M250.46790491399287,329.7086147536533 286.1599094418979,309.1018263315501 321.851913969803,329.7086147536533 321.851913969803,370.9221915978598 286.1599094418979,391.528980019963 250.46790491399287,370.9221915978598 250.46790491399287,329.7086147536533Z" id="72" nom_dep="Sarthe" insee_reg="52" fill="white" stroke="black"/>
<path d="M321.85191396980304,329.7086147536533 357.5439184977081,309.1018263315501 393.2359230256132,329.7086147536533 393.2359230256132,370.9221915978598 357.5439184977081,391.528980019963 321.85191396980304,370.9221915978598 321.85191396980304,329.7086147536533Z" id="28" nom_dep="Eure-et-Loir" insee_reg="24" fill="white" stroke="black"/>
<path d="M393.2359230256134,329.7086147536533 428.92792755351843,309.1018263315501 464.6199320814235,329.7086147536533 464.6199320814235,370.9221915978598 428.92792755351843,391.528980019963 393.2359230256134,370.9221915978598 393.2359230256134,329.7086147536533Z" id="91" nom_dep="Essonne" insee_reg="11" fill="white" stroke="black"/>
<path d="M464.6199320814235,329.7086147536533 500.3119366093286,309.1018263315501 536.0039411372336,329.7086147536533 536.0039411372336,370.9221915978598 500.3119366093286,391.528980019963 464.6199320814235,370.9221915978598 464.6199320814235,329.7086147536533Z" id="94" nom_dep="Val-de-Marne" insee_reg="11" fill="white" stroke="black"/>
<path d="M536.0039411372336,329.7086147536533 571.6959456651387,309.1018263315501 607.3879501930438,329.7086147536533 607.3879501930438,370.9221915978598 571.6959456651387,391.528980019963 536.0039411372336,370.9221915978598 536.0039411372336,329.7086147536533Z" id="89" nom_dep="Yonne" insee_reg="27" fill="white" stroke="black"/>
<path d="M607.3879501930439,329.7086147536533 643.079954720949,309.1018263315501 678.771959248854,329.7086147536533 678.771959248854,370.9221915978598 643.079954720949,391.528980019963 607.3879501930439,370.9221915978598 607.3879501930439,329.7086147536533Z" id="52" nom_dep="Haute-Marne" insee_reg="44" fill="white" stroke="black"/>
<path d="M678.771959248854,329.7086147536533 714.4639637767592,309.1018263315501 750.1559683046643,329.7086147536533 750.1559683046643,370.9221915978598 714.4639637767592,391.528980019963 678.771959248854,370.9221915978598 678.771959248854,329.7086147536533Z" id="70" nom_dep="Haute-Saône" insee_reg="27" fill="white" stroke="black"/>
<path d="M750.1559683046644,329.7086147536533 785.8479728325694,309.1018263315501 821.5399773604746,329.7086147536533 821.5399773604746,370.9221915978598 785.8479728325694,391.528980019963 750.1559683046644,370.9221915978598 750.1559683046644,329.7086147536533Z" id="68" nom_dep="Haut-Rhin" insee_reg="44" fill="white" stroke="black"/>
<path d="M0.6238732186571148,267.8882494873428 36.31587774656218,247.2814610652396 72.00788227446725,267.8882494873428 72.00788227446725,309.10182633154926 36.31587774656218,329.7086147536525 0.6238732186571148,309.10182633154926 0.6238732186571148,267.8882494873428Z" id="29" nom_dep="Finistère" insee_reg="53" fill="white" stroke="black"/>
<path d="M72.00788227446735,267.8882494873428 107.6998868023724,247.2814610652396 143.39189133027747,267.8882494873428 143.39189133027747,309.10182633154926 107.6998868023724,329.7086147536525 72.00788227446735,309.10182633154926 72.00788227446735,267.8882494873428Z" id="22" nom_dep="Côtes d'Armor" insee_reg="53" fill="white" stroke="black"/>
<path d="M143.3918913302776,267.8882494873428 179.08389585818264,247.2814610652396 214.7759003860877,267.8882494873428 214.7759003860877,309.10182633154926 179.08389585818264,329.7086147536525 143.3918913302776,309.10182633154926 143.3918913302776,267.8882494873428Z" id="50" nom_dep="Manche" insee_reg="28" fill="white" stroke="black"/>
<path d="M214.77590038608776,267.8882494873428 250.4679049139928,247.2814610652396 286.15990944189787,267.8882494873428 286.15990944189787,309.10182633154926 250.4679049139928,329.7086147536525 214.77590038608776,309.10182633154926 214.77590038608776,267.8882494873428Z" id="53" nom_dep="Mayenne" insee_reg="52" fill="white" stroke="black"/>
<path d="M286.159909441898,267.8882494873428 321.85191396980304,247.2814610652396 357.5439184977081,267.8882494873428 357.5439184977081,309.10182633154926 321.85191396980304,329.7086147536525 286.159909441898,309.10182633154926 286.159909441898,267.8882494873428Z" id="61" nom_dep="Orne" insee_reg="28" fill="white" stroke="black"/>
<path d="M357.5439184977081,267.8882494873428 393.2359230256132,247.2814610652396 428.92792755351826,267.8882494873428 428.92792755351826,309.10182633154926 393.2359230256132,329.7086147536525 357.5439184977081,309.10182633154926 357.5439184977081,267.8882494873428Z" id="78" nom_dep="Yvelines" insee_reg="11" fill="white" stroke="black"/>
<path d="M428.92792755351843,267.8882494873428 464.6199320814235,247.2814610652396 500.3119366093286,267.8882494873428 500.3119366093286,309.10182633154926 464.6199320814235,329.7086147536525 428.92792755351843,309.10182633154926 428.92792755351843,267.8882494873428Z" id="75" nom_dep="Paris" insee_reg="11" fill="white" stroke="black"/>
<path d="M500.3119366093286,267.8882494873428 536.0039411372336,247.2814610652396 571.6959456651387,267.8882494873428 571.6959456651387,309.10182633154926 536.0039411372336,329.7086147536525 500.3119366093286,309.10182633154926 500.3119366093286,267.8882494873428Z" id="77" nom_dep="Seine-et-Marne" insee_reg="11" fill="white" stroke="black"/>
<path d="M571.6959456651389,267.8882494873428 607.3879501930439,247.2814610652396 643.079954720949,267.8882494873428 643.079954720949,309.10182633154926 607.3879501930439,329.7086147536525 571.6959456651389,309.10182633154926 571.6959456651389,267.8882494873428Z" id="10" nom_dep="Aube" insee_reg="44" fill="white" stroke="black"/>
<path d="M643.079954720949,267.8882494873428 678.771959248854,247.2814610652396 714.4639637767592,267.8882494873428 714.4639637767592,309.10182633154926 678.771959248854,329.7086147536525 643.079954720949,309.10182633154926 643.079954720949,267.8882494873428Z" id="54" nom_dep="Meurthe-et-Moselle" insee_reg="44" fill="white" stroke="black"/>
<path d="M714.4639637767593,267.8882494873428 750.1559683046644,247.2814610652396 785.8479728325694,267.8882494873428 785.8479728325694,309.10182633154926 750.1559683046644,329.7086147536525 714.4639637767593,309.10182633154926 714.4639637767593,267.8882494873428Z" id="88" nom_dep="Vosges" insee_reg="44" fill="white" stroke="black"/>
<path d="M250.46790491399287,206.06788422103313 286.1599094418979,185.4610957989299 321.851913969803,206.06788422103313 321.851913969803,247.2814610652396 286.1599094418979,267.8882494873428 250.46790491399287,247.2814610652396 250.46790491399287,206.06788422103313Z" id="14" nom_dep="Calvados" insee_reg="28" fill="white" stroke="black"/>
<path d="M321.85191396980304,206.06788422103313 357.5439184977081,185.4610957989299 393.2359230256132,206.06788422103313 393.2359230256132,247.2814610652396 357.5439184977081,267.8882494873428 321.85191396980304,247.2814610652396 321.85191396980304,206.06788422103313Z" id="27" nom_dep="Eure" insee_reg="28" fill="white" stroke="black"/>
<path d="M393.2359230256134,206.06788422103313 428.92792755351843,185.4610957989299 464.6199320814235,206.06788422103313 464.6199320814235,247.2814610652396 428.92792755351843,267.8882494873428 393.2359230256134,247.2814610652396 393.2359230256134,206.06788422103313Z" id="95" nom_dep="Val-d'Oise" insee_reg="11" fill="white" stroke="black"/>
<path d="M464.6199320814235,206.06788422103313 500.3119366093286,185.4610957989299 536.0039411372336,206.06788422103313 536.0039411372336,247.2814610652396 500.3119366093286,267.8882494873428 464.6199320814235,247.2814610652396 464.6199320814235,206.06788422103313Z" id="93" nom_dep="Seine-Saint-Denis" insee_reg="11" fill="white" stroke="black"/>
<path d="M536.0039411372336,206.06788422103313 571.6959456651387,185.4610957989299 607.3879501930438,206.06788422103313 607.3879501930438,247.2814610652396 571.6959456651387,267.8882494873428 536.0039411372336,247.2814610652396 536.0039411372336,206.06788422103313Z" id="51" nom_dep="Marne" insee_reg="44" fill="white" stroke="black"/>
<path d="M607.3879501930439,206.06788422103313 643.079954720949,185.4610957989299 678.771959248854,206.06788422103313 678.771959248854,247.2814610652396 643.079954720949,267.8882494873428 607.3879501930439,247.2814610652396 607.3879501930439,206.06788422103313Z" id="55" nom_dep="Meuse" insee_reg="44" fill="white" stroke="black"/>
<path d="M678.771959248854,206.06788422103313 714.4639637767592,185.4610957989299 750.1559683046643,206.06788422103313 750.1559683046643,247.2814610652396 714.4639637767592,267.8882494873428 678.771959248854,247.2814610652396 678.771959248854,206.06788422103313Z" id="57" nom_dep="Moselle" insee_reg="44" fill="white" stroke="black"/>
<path d="M750.1559683046644,206.06788422103313 785.8479728325694,185.4610957989299 821.5399773604746,206.06788422103313 821.5399773604746,247.2814610652396 785.8479728325694,267.8882494873428 750.1559683046644,247.2814610652396 750.1559683046644,206.06788422103313Z" id="67" nom_dep="Bas-Rhin" insee_reg="44" fill="white" stroke="black"/>
<path d="M357.5439184977081,144.24751895472343 393.2359230256132,123.6407305326202 428.92792755351826,144.24751895472343 428.92792755351826,185.4610957989299 393.2359230256132,206.06788422103313 357.5439184977081,185.4610957989299 357.5439184977081,144.24751895472343Z" id="76" nom_dep="Seine-Maritime" insee_reg="28" fill="white" stroke="black"/>
<path d="M428.92792755351843,144.24751895472343 464.6199320814235,123.6407305326202 500.3119366093286,144.24751895472343 500.3119366093286,185.4610957989299 464.6199320814235,206.06788422103313 428.92792755351843,185.4610957989299 428.92792755351843,144.24751895472343Z" id="60" nom_dep="Oise" insee_reg="32" fill="white" stroke="black"/>
<path d="M500.3119366093286,144.24751895472343 536.0039411372336,123.6407305326202 571.6959456651387,144.24751895472343 571.6959456651387,185.4610957989299 536.0039411372336,206.06788422103313 500.3119366093286,185.4610957989299 500.3119366093286,144.24751895472343Z" id="02" nom_dep="Aisne" insee_reg="32" fill="white" stroke="black"/>
<path d="M571.6959456651389,144.24751895472343 607.3879501930439,123.6407305326202 643.079954720949,144.24751895472343 643.079954720949,185.4610957989299 607.3879501930439,206.06788422103313 571.6959456651389,185.4610957989299 571.6959456651389,144.24751895472343Z" id="08" nom_dep="Ardennes" insee_reg="44" fill="white" stroke="black"/>
<path d="M393.2359230256134,82.42715368841293 428.92792755351843,61.82036526630969 464.6199320814235,82.42715368841293 464.6199320814235,123.64073053261939 428.92792755351843,144.2475189547226 393.2359230256134,123.64073053261939 393.2359230256134,82.42715368841293Z" id="80" nom_dep="Somme" insee_reg="32" fill="white" stroke="black"/>
<path d="M464.6199320814235,82.42715368841293 500.3119366093286,61.82036526630969 536.0039411372336,82.42715368841293 536.0039411372336,123.64073053261939 500.3119366093286,144.2475189547226 464.6199320814235,123.64073053261939 464.6199320814235,82.42715368841293Z" id="59" nom_dep="Nord" insee_reg="32" fill="white" stroke="black"/>
<path d="M428.92792755351843,20.606788422103232 464.6199320814235,0 500.3119366093286,20.606788422103232 500.3119366093286,61.82036526630969 464.6199320814235,82.42715368841293 428.92792755351843,61.82036526630969 428.92792755351843,20.606788422103232Z" id="62" nom_dep="Pas-de-Calais" insee_reg="32" fill="white" stroke="black"/>
<path d="M0.6238732186571148,489.2122995657948 36.31587774656218,468.60551114369156 72.00788227446725,489.2122995657948 72.00788227446725,530.4258764100013 36.31587774656218,551.0326648321045 0.6238732186571148,530.4258764100013 0.6238732186571148,489.2122995657948Z" id="971" nom_dep="Guadeloupe" insee_reg="1" fill="white" stroke="black"/>
<path d="M0.6238732186571148,576.4655460746438 36.31587774656218,555.8587576525406 72.00788227446725,576.4655460746438 72.00788227446725,617.6791229188503 36.31587774656218,638.2859113409536 0.6238732186571148,617.6791229188503 0.6238732186571148,576.4655460746438Z" id="972" nom_dep="Martinique" insee_reg="2" fill="white" stroke="black"/>
<path d="M892.9239864162847,693.3916671208606 928.6159909441899,672.7848786987573 964.307995472095,693.3916671208606 964.307995472095,734.6052439650671 928.6159909441899,755.2120323871702 892.9239864162847,734.6052439650671 892.9239864162847,693.3916671208606Z" id="974" nom_dep="La Réunion" insee_reg="4" fill="white" stroke="black"/>
<path d="M892.9239864162847,606.1384206120115 928.6159909441899,585.5316321899082 964.307995472095,606.1384206120115 964.307995472095,647.351997456218 928.6159909441899,667.9587858783212 892.9239864162847,647.351997456218 892.9239864162847,606.1384206120115Z" id="976" nom_dep="Mayotte" insee_reg="6" fill="white" stroke="black"/>
<path d="M0.6238732186571148,663.7187925834929 36.31587774656218,643.1120041613897 72.00788227446725,663.7187925834929 72.00788227446725,704.9323694276993 36.31587774656218,725.5391578498026 0.6238732186571148,704.9323694276993 0.6238732186571148,663.7187925834929Z" id="973" nom_dep="Guyane" insee_reg="3" fill="white" stroke="black"/>
<path d="M195.18622501447524,948.3286732573729 174.5061244583917,912.679096018875 195.0395137030654,876.9448149652417 236.25300350382108,876.8601111501054 256.9331040599038,912.5096883886033 236.39971481523088,948.2439694422375 195.18622501447524,948.3286732573729Z" id="986" nom_dep="Wallis-et-Futuna" fill="white" stroke="black"/>
<path d="M20.680100556083545,948.687326081426 0,913.0377488429282 20.533389244673735,877.3034677892948 61.74687904542939,877.2187639741594 82.42697960151212,912.8683412126572 61.8935903568392,948.6026222662906 20.680100556083545,948.687326081426Z" id="987" nom_dep="Polynésie-française" fill="white" stroke="black"/>
<path d="M107.93316278527979,948.5079996693995 87.25306222919625,912.8584224309016 107.78645147386999,877.1241413772683 148.99994127462563,877.0394375621328 169.68004183070838,912.6890148006306 149.14665258603546,948.423295854264 107.93316278527979,948.5079996693995Z" id="975" nom_dep="Saint-Pierre-et-Miquelon" fill="white" stroke="black"/>
<path d="M281.5536498942351,948.5079996693995 260.8735493381516,912.8584224309016 281.4069385828253,877.1241413772683 322.62042838358093,877.0394375621328 343.3005289396637,912.6890148006306 322.76713969499076,948.423295854264 281.5536498942351,948.5079996693995Z" id="988" nom_dep="Nouvelle-Calédonie" fill="white" stroke="black"/>
<path d="M857.1933934170505,886.0871402654393 892.8853979449556,865.480351843336 928.5774024728607,886.0871402654393 928.5774024728607,927.3007171096457 892.8853979449556,947.9075055317489 857.1933934170505,927.3007171096457 857.1933934170505,886.0871402654393Z" id="20" nom_dep="Corse" insee_reg="94" fill="white" stroke="black"/>
</svg>